<svg width="46" height="46" viewBox="0 0 46 46" fill="none" xmlns="http://www.w3.org/2000/svg">
<path d="M11.4058 28.52L3.23077 37.8623C3.03375 38.0884 2.91236 38.3704 2.88359 38.6689C2.85481 38.9673 2.9201 39.2673 3.0703 39.5269C3.2205 39.7864 3.4481 39.9925 3.72124 40.1162C3.99437 40.2399 4.29936 40.2752 4.59352 40.217L10.838 38.9692L13.1783 42.4796C13.3328 42.7112 13.5512 42.893 13.807 43.0028C14.0629 43.1127 14.3451 43.1459 14.6194 43.0984C14.8938 43.0509 15.1484 42.9247 15.3524 42.7353C15.5564 42.5458 15.701 42.3012 15.7686 42.0311L18.0399 32.9475C16.676 32.7445 15.3739 32.2423 14.227 31.4768C13.08 30.7113 12.1166 29.7016 11.4058 28.52ZM35.402 37.6927L27.3923 28.5416C26.678 29.7219 25.7114 30.7295 24.5616 31.492C23.4119 32.2545 22.1076 32.7531 20.7424 32.9518L23.0136 42.0368C23.0813 42.3069 23.2259 42.5516 23.4299 42.741C23.6339 42.9305 23.8885 43.0566 24.1629 43.1041C24.4372 43.1516 24.7194 43.1185 24.9753 43.0086C25.2311 42.8987 25.4495 42.717 25.604 42.4853L27.9471 38.975L34.1888 40.2227C34.2909 40.2435 34.3951 40.2526 34.4993 40.25C34.7972 40.2507 35.0881 40.1587 35.3315 39.9869C35.5749 39.815 35.7589 39.5718 35.8581 39.2908C35.9572 39.0098 35.9666 38.7049 35.8849 38.4184C35.8032 38.1318 35.6344 37.8777 35.402 37.6913V37.6927ZM38.8118 12.985L32.757 15.5796C32.3992 15.7347 32.0135 15.8147 31.6235 15.8147C31.2336 15.8147 30.8479 15.7347 30.4901 15.5796L24.4368 12.9835V15.8125C24.4366 16.0797 24.511 16.3415 24.6514 16.5688C24.7918 16.796 24.9927 16.9797 25.2317 17.0991L30.9817 19.9741C31.1812 20.0738 31.4012 20.1257 31.6243 20.1257C31.8473 20.1257 32.0673 20.0738 32.2668 19.9741L38.0168 17.0991C38.2558 16.9797 38.4567 16.796 38.5972 16.5688C38.7376 16.3415 38.8119 16.0797 38.8118 15.8125V12.985Z" fill="#F9F9F9"/>
<path d="M42.2539 7.30392L32.1914 2.99142C32.0125 2.91437 31.8198 2.87463 31.625 2.87463C31.4302 2.87463 31.2375 2.91437 31.0586 2.99142L20.9961 7.30392C20.7377 7.4148 20.5174 7.59906 20.3626 7.83387C20.2079 8.06869 20.1254 8.34375 20.1254 8.62498C20.1254 8.90622 20.2079 9.18128 20.3626 9.41609C20.5174 9.65091 20.7377 9.83517 20.9961 9.94605L31.0586 14.2585C31.2375 14.3357 31.4302 14.3755 31.625 14.3755C31.8198 14.3755 32.0125 14.3357 32.1914 14.2585L40.25 10.8042V18.6875C40.25 19.0687 40.4014 19.4344 40.671 19.7039C40.9406 19.9735 41.3063 20.125 41.6875 20.125C42.0687 20.125 42.4344 19.9735 42.704 19.7039C42.9736 19.4344 43.125 19.0687 43.125 18.6875V8.62498C43.125 8.34371 43.0424 8.06862 42.8876 7.8338C42.7327 7.59898 42.5124 7.41474 42.2539 7.30392ZM19.4062 15.8125C17.3101 15.8148 15.3004 16.6485 13.8182 18.1307C12.336 19.6129 11.5023 21.6226 11.5 23.7187C11.5 28.0787 15.0463 31.625 19.4062 31.625C23.7662 31.625 27.3125 28.0787 27.3125 23.7187C27.3125 19.3588 23.7662 15.8125 19.4062 15.8125ZM24.2276 21.3526L18.4776 27.1026C18.4111 27.1699 18.3318 27.2233 18.2445 27.2598C18.1571 27.2962 18.0634 27.315 17.9688 27.315C17.8741 27.315 17.7804 27.2962 17.693 27.2598C17.6057 27.2233 17.5264 27.1699 17.4599 27.1026L14.5849 24.2276C14.518 24.1608 14.465 24.0814 14.4289 23.9941C14.3927 23.9068 14.3741 23.8132 14.3741 23.7187C14.3741 23.6242 14.3927 23.5306 14.4289 23.4433C14.465 23.356 14.518 23.2767 14.5849 23.2099C14.6517 23.143 14.731 23.09 14.8183 23.0539C14.9057 23.0177 14.9992 22.9991 15.0938 22.9991C15.1883 22.9991 15.2818 23.0177 15.3692 23.0539C15.4565 23.09 15.5358 23.143 15.6026 23.2099L17.9688 25.5774L23.2099 20.3349C23.2767 20.268 23.356 20.215 23.4433 20.1789C23.5307 20.1427 23.6242 20.1241 23.7188 20.1241C23.8133 20.1241 23.9068 20.1427 23.9942 20.1789C24.0815 20.215 24.1608 20.268 24.2276 20.3349C24.2945 20.4017 24.3475 20.481 24.3836 20.5683C24.4198 20.6556 24.4384 20.7492 24.4384 20.8437C24.4384 20.9382 24.4198 21.0318 24.3836 21.1191C24.3475 21.2064 24.2945 21.2858 24.2276 21.3526Z" fill="#F9F9F9"/>
</svg>
