<svg width="42" height="42" viewBox="0 0 42 42" fill="none" xmlns="http://www.w3.org/2000/svg">
<path fill-rule="evenodd" clip-rule="evenodd" d="M33.5236 32.7791H35.7489C37.2226 32.7791 38.4284 31.5733 38.4284 30.0996V11.6662C38.4284 10.1925 37.2226 8.98677 35.7489 8.98677H31.9885V11.2274H35.8161C35.9146 11.2277 36.0089 11.2669 36.0786 11.3365C36.1482 11.4061 36.1874 11.5005 36.1877 11.599V28.2655H34.4754L34.5628 29.5254C34.5628 30.682 34.2302 31.8524 33.5236 32.7791ZM9.16071 40.6875V38.8618C9.16071 37.8577 10.189 37.0361 11.4457 37.0361H15.5242V32.7791H13.7164C13.7717 32.6972 13.8241 32.6133 13.8735 32.5277L16.3342 28.2656H25.6685L28.1292 32.5277C28.1786 32.6133 28.231 32.6972 28.2862 32.7791H26.4783V37.0361H30.5568C31.8136 37.0361 32.8418 37.8577 32.8418 38.8618V40.6875H9.16071ZM20.345 2.53173C17.3038 1.70822 15.9257 1.3125 11.3265 1.3125V14.4049C14.595 14.4049 17.9093 14.7413 20.3449 15.8927V2.53173H20.345ZM18.1462 9.39479C18.3134 9.43903 18.4562 9.54763 18.5435 9.69687C18.6308 9.84611 18.6555 10.0238 18.6121 10.1912C18.5687 10.3586 18.4609 10.502 18.3121 10.59C18.1633 10.6781 17.9857 10.7037 17.8181 10.6612C16.4421 10.3032 15.0679 10.1195 13.6505 10.0358C13.4781 10.0244 13.3171 9.94524 13.2027 9.81562C13.0884 9.68601 13.0299 9.51644 13.04 9.34388C13.0502 9.17133 13.1281 9.00979 13.2569 8.89448C13.3857 8.77918 13.5548 8.71947 13.7275 8.72837C15.2357 8.81754 16.682 9.01376 18.1462 9.39479ZM18.1411 6.61352C18.2246 6.6344 18.3031 6.67151 18.3723 6.72274C18.4414 6.77397 18.4998 6.83831 18.544 6.9121C18.5883 6.98589 18.6176 7.06768 18.6303 7.15279C18.6429 7.2379 18.6387 7.32468 18.6178 7.40816C18.597 7.49164 18.5599 7.57019 18.5086 7.63933C18.4574 7.70847 18.3931 7.76685 18.3193 7.81112C18.2455 7.85539 18.1637 7.88469 18.0786 7.89736C17.9935 7.91002 17.9067 7.9058 17.8232 7.88493C16.4331 7.53318 15.0831 7.34811 13.653 7.26944C13.4796 7.25993 13.3171 7.18193 13.2013 7.05261C13.0854 6.9233 13.0257 6.75325 13.0352 6.57989C13.0447 6.40653 13.1227 6.24405 13.252 6.12819C13.3814 6.01233 13.5514 5.95259 13.7248 5.96211C15.2385 6.04537 16.6697 6.24118 18.1411 6.61352ZM18.136 3.83111C18.3031 3.87333 18.4467 3.97978 18.5358 4.12733C18.6248 4.27488 18.652 4.4516 18.6115 4.6191C18.571 4.7866 18.466 4.93134 18.3194 5.02187C18.1727 5.11241 17.9963 5.14141 17.8284 5.10259C16.4301 4.76093 15.0944 4.57505 13.6582 4.5027C13.4856 4.49341 13.3237 4.41625 13.2078 4.28806C13.092 4.15987 13.0315 3.99105 13.0396 3.81843C13.0477 3.64582 13.1238 3.48342 13.2512 3.36668C13.3786 3.24994 13.547 3.18832 13.7197 3.19528C15.2434 3.27198 16.6525 3.46861 18.136 3.83111ZM18.1488 12.1702C18.2319 12.192 18.31 12.2301 18.3784 12.2821C18.4469 12.3341 18.5044 12.3991 18.5477 12.4734C18.591 12.5477 18.6193 12.6297 18.6309 12.7149C18.6425 12.8001 18.6372 12.8868 18.6153 12.9699C18.5935 13.0531 18.5554 13.1311 18.5034 13.1995C18.4514 13.268 18.3864 13.3255 18.3121 13.3688C18.2378 13.4122 18.1558 13.4404 18.0706 13.452C17.9854 13.4636 17.8987 13.4584 17.8156 13.4365C16.4496 13.0738 15.0565 12.8897 13.648 12.8015C13.4757 12.7891 13.3153 12.7092 13.2017 12.5792C13.0881 12.4491 13.0304 12.2795 13.0412 12.1071C13.052 11.9348 13.1305 11.7737 13.2595 11.6588C13.3885 11.544 13.5576 11.4848 13.73 11.4941C15.229 11.5881 16.6951 11.7841 18.1488 12.1702ZM24.1844 10.6611C24.0176 10.7014 23.8416 10.6745 23.6944 10.5862C23.5473 10.498 23.4407 10.3554 23.3976 10.1893C23.3546 10.0231 23.3785 9.84674 23.4643 9.69811C23.5501 9.54948 23.6909 9.44052 23.8563 9.39471C25.3206 9.01376 26.7668 8.81746 28.2751 8.72829C28.4478 8.71939 28.6169 8.7791 28.7457 8.8944C28.8745 9.00971 28.9524 9.17125 28.9626 9.3438C28.9727 9.51636 28.9143 9.68593 28.7999 9.81554C28.6855 9.94515 28.5246 10.0243 28.3521 10.0357C26.9346 10.1195 25.5605 10.3031 24.1844 10.6611ZM24.1793 7.88501C24.0958 7.90589 24.0091 7.91012 23.9239 7.89746C23.8388 7.88481 23.757 7.8555 23.6832 7.81123C23.6095 7.76696 23.5451 7.70858 23.4939 7.63943C23.4426 7.57029 23.4055 7.49173 23.3847 7.40824C23.3638 7.32476 23.3596 7.23798 23.3722 7.15286C23.3849 7.06775 23.4142 6.98596 23.4585 6.91216C23.5027 6.83837 23.5611 6.77403 23.6303 6.7228C23.6994 6.67157 23.778 6.63447 23.8615 6.61361C25.3329 6.24127 26.764 6.04554 28.2778 5.9622C28.3636 5.95748 28.4495 5.96972 28.5306 5.99822C28.6118 6.02671 28.6865 6.07091 28.7505 6.12827C28.8145 6.18564 28.8666 6.25505 28.9038 6.33256C28.941 6.41006 28.9626 6.49413 28.9673 6.57997C28.972 6.66581 28.9598 6.75174 28.9313 6.83285C28.9028 6.91396 28.8586 6.98867 28.8012 7.0527C28.7439 7.11673 28.6745 7.16883 28.597 7.20604C28.5195 7.24324 28.4354 7.26481 28.3495 7.26953C26.9193 7.3482 25.5694 7.53326 24.1793 7.88501ZM24.1742 5.10259C24.0062 5.14141 23.8298 5.11241 23.6832 5.02187C23.5365 4.93134 23.4315 4.7866 23.391 4.6191C23.3505 4.4516 23.3777 4.27488 23.4667 4.12733C23.5558 3.97978 23.6995 3.87333 23.8665 3.83111C25.35 3.46869 26.7591 3.27206 28.2829 3.19528C28.4555 3.18832 28.6239 3.24994 28.7513 3.36668C28.8787 3.48342 28.9548 3.64582 28.9629 3.81843C28.971 3.99105 28.9106 4.15987 28.7947 4.28806C28.6788 4.41625 28.5169 4.49341 28.3444 4.5027C26.9082 4.57496 25.5725 4.76093 24.1742 5.10259ZM24.1869 13.4365C24.0199 13.4782 23.843 13.4524 23.6948 13.3647C23.5466 13.277 23.4389 13.1344 23.3951 12.9679C23.3512 12.8013 23.3748 12.6242 23.4606 12.4749C23.5465 12.3256 23.6877 12.2161 23.8537 12.1702C25.3074 11.7841 26.7735 11.5881 28.2725 11.4941C28.445 11.4849 28.6141 11.5441 28.7431 11.6589C28.8721 11.7737 28.9505 11.9348 28.9613 12.1072C28.9721 12.2796 28.9145 12.4492 28.8008 12.5792C28.6872 12.7093 28.5268 12.7892 28.3545 12.8016C26.946 12.8898 25.553 13.0738 24.1869 13.4365ZM30.676 1.3125C26.077 1.3125 24.6987 1.70822 21.6575 2.53173V15.8927C24.0932 14.7413 27.4076 14.4049 30.676 14.4049V1.3125ZM16.0893 18.5889H25.9133C26.602 18.1525 27.4186 17.8997 28.2943 17.8997C30.7549 17.8997 32.5794 19.9004 32.7497 22.3552L33.2503 29.571C33.2503 32.3685 30.6138 34.2064 29.2657 31.8714L26.0603 26.3194H15.9422L12.7368 31.8714C11.3887 34.2064 8.75228 32.3685 8.75228 29.571L9.25291 22.3552C9.42321 19.9004 11.2477 17.8997 13.7084 17.8997C14.584 17.8997 15.4006 18.1525 16.0893 18.5889ZM29.0557 20.5561C29.0557 20.0826 28.6718 19.6987 28.1984 19.6987C27.7248 19.6987 27.341 20.0826 27.341 20.5561C27.341 21.0296 27.7249 21.4135 28.1984 21.4135C28.6718 21.4135 29.0557 21.0296 29.0557 20.5561ZM29.0557 24.1541C29.0557 23.6806 28.6718 23.2967 28.1984 23.2967C27.7248 23.2967 27.341 23.6806 27.341 24.1541C27.341 24.6277 27.7249 25.0115 28.1984 25.0115C28.6718 25.0116 29.0557 24.6277 29.0557 24.1541ZM26.3993 21.4977C25.9258 21.4977 25.5419 21.8816 25.5419 22.3551C25.5419 22.8286 25.9258 23.2125 26.3993 23.2125C26.8729 23.2125 27.2568 22.8286 27.2568 22.3551C27.2567 21.8816 26.8729 21.4977 26.3993 21.4977ZM29.9974 21.4977C29.5239 21.4977 29.14 21.8816 29.14 22.3551C29.14 22.8286 29.5239 23.2125 29.9974 23.2125C30.4709 23.2125 30.8548 22.8286 30.8548 22.3551C30.8548 21.8816 30.4709 21.4977 29.9974 21.4977ZM15.5512 22.3762C15.5512 22.0439 15.2794 21.7721 14.9472 21.7721H13.7526V20.5775C13.7526 20.2453 13.4807 19.9735 13.1486 19.9735C12.8164 19.9735 12.5445 20.2453 12.5445 20.5775V21.7722H11.3499C11.0177 21.7722 10.7459 22.044 10.7459 22.3762C10.7459 22.7084 11.0177 22.9802 11.3499 22.9802H12.5445V24.1749C12.5445 24.5071 12.8164 24.7789 13.1486 24.7789C13.4808 24.7789 13.7526 24.5071 13.7526 24.1749V22.9802H14.9472C15.2794 22.9802 15.5512 22.7084 15.5512 22.3762ZM3.57422 30.0996C3.57422 31.5733 4.78 32.7791 6.25369 32.7791H8.47903C7.78874 31.8739 7.43986 30.6941 7.43986 29.571L7.52722 28.2656H5.81482V11.5991C5.81512 11.5006 5.85437 11.4062 5.92399 11.3366C5.99362 11.267 6.08796 11.2278 6.18642 11.2275H10.0141V8.98685H6.25369C4.78 8.98685 3.57422 10.1926 3.57422 11.6663V30.0996Z" fill="white"/>
</svg>
