<svg width="42" height="42" viewBox="0 0 42 42" fill="none" xmlns="http://www.w3.org/2000/svg">
<g clip-path="url(#clip0_525_250)">
<path d="M37.5875 9.63903L21.7159 0.19682C21.4994 0.0680359 21.2521 6.10352e-05 21.0002 6.10352e-05C20.7482 6.10352e-05 20.5009 0.0680359 20.2844 0.19682L4.41274 9.63903C4.20421 9.76311 4.03151 9.93926 3.91156 10.1502C3.79161 10.3611 3.72853 10.5996 3.72852 10.8423V16.2323C3.72852 27.5849 10.2877 37.9538 20.4946 41.9056C20.8199 42.0315 21.1804 42.0315 21.5056 41.9056C31.6877 37.9637 38.2716 27.6172 38.2716 16.2323V10.8423C38.2717 10.5996 38.2086 10.3611 38.0887 10.1502C37.9688 9.93923 37.796 9.76309 37.5875 9.63903ZM27.9167 17.8541L19.1423 26.6287C18.5955 27.1754 17.7091 27.1754 17.1624 26.6287L14.0829 23.5493C13.5362 23.0027 13.5362 22.1161 14.0829 21.5694C14.6296 21.0228 15.5162 21.0228 16.0628 21.5694L18.1522 23.6588L25.9368 15.8742C26.4835 15.3276 27.37 15.3276 27.9167 15.8742C28.4636 16.421 28.4636 17.3075 27.9167 17.8541Z" fill="white"/>
</g>
<defs>
<clipPath id="clip0_525_250">
<rect width="42" height="42" fill="white"/>
</clipPath>
</defs>
</svg>
