<svg width="42" height="42" viewBox="0 0 42 42" fill="none" xmlns="http://www.w3.org/2000/svg">
<path d="M35.4375 28.1393V24.2812H36.75V28.1393C38.2456 27.7732 39.375 26.1831 39.375 24.2812C39.375 22.1097 37.903 20.3437 36.0938 20.3437C34.2845 20.3437 32.8125 22.1097 32.8125 24.2812C32.8125 26.1844 33.9419 27.7732 35.4375 28.1393ZM17.7188 7.21875C17.7172 7.74042 17.5093 8.24027 17.1404 8.60915C16.7715 8.97802 16.2717 9.18594 15.75 9.1875H12.1013L13.0397 7.54687L11.8978 6.89062L10.5853 9.1875H8.53125C8.00911 9.1875 7.50835 8.98008 7.13913 8.61087C6.76992 8.24165 6.5625 7.74089 6.5625 7.21875C6.5625 6.6966 6.76992 6.19585 7.13913 5.82663C7.50835 5.45742 8.00911 5.25 8.53125 5.25H10.5C10.674 5.25 10.841 5.18086 10.964 5.05779C11.0871 4.93472 11.1562 4.7678 11.1562 4.59375C11.1562 4.0716 11.3637 3.57085 11.7329 3.20163C12.1021 2.83242 12.6029 2.625 13.125 2.625C13.6471 2.625 14.1479 2.83242 14.5171 3.20163C14.8863 3.57085 15.0938 4.0716 15.0938 4.59375C15.0938 4.7678 15.1629 4.93472 15.286 5.05779C15.409 5.18086 15.576 5.25 15.75 5.25C16.2717 5.25156 16.7715 5.45948 17.1404 5.82835C17.5093 6.19723 17.7172 6.69708 17.7188 7.21875ZM34.7812 8.53125C34.7797 9.05292 34.5718 9.55277 34.2029 9.92165C33.834 10.2905 33.3342 10.4984 32.8125 10.5H29.82L30.7584 8.85937L29.6166 8.20312L28.3041 10.5H25.5938C25.0716 10.5 24.5708 10.2926 24.2016 9.92337C23.8324 9.55415 23.625 9.05339 23.625 8.53125C23.625 8.0091 23.8324 7.50835 24.2016 7.13913C24.5708 6.76992 25.0716 6.5625 25.5938 6.5625H27.5625C27.7365 6.5625 27.9035 6.49336 28.0265 6.37029C28.1496 6.24722 28.2188 6.0803 28.2188 5.90625C28.2188 5.3841 28.4262 4.88335 28.7954 4.51413C29.1646 4.14492 29.6654 3.9375 30.1875 3.9375C30.7096 3.9375 31.2104 4.14492 31.5796 4.51413C31.9488 4.88335 32.1562 5.3841 32.1562 5.90625C32.1562 6.0803 32.2254 6.24722 32.3485 6.37029C32.4715 6.49336 32.6385 6.5625 32.8125 6.5625C33.3342 6.56406 33.834 6.77198 34.2029 7.14085C34.5718 7.50973 34.7797 8.00958 34.7812 8.53125ZM5.25 15.75H6.5625L5.38125 17.325L6.43125 18.1125L8.4 15.4875C8.47312 15.39 8.51765 15.2741 8.5286 15.1527C8.53954 15.0313 8.51647 14.9093 8.46197 14.8003C8.40746 14.6913 8.32368 14.5996 8.22001 14.5355C8.11634 14.4714 7.99687 14.4375 7.875 14.4375H6.5625L7.74375 12.8625L6.69375 12.075L4.725 14.7C4.65188 14.7975 4.60735 14.9134 4.5964 15.0348C4.58546 15.1562 4.60853 15.2782 4.66303 15.3872C4.71754 15.4962 4.80132 15.5879 4.90499 15.652C5.00866 15.7161 5.12813 15.75 5.25 15.75ZM35.5688 12.075L33.6 14.7C33.5269 14.7975 33.4823 14.9134 33.4714 15.0348C33.4605 15.1562 33.4835 15.2782 33.538 15.3872C33.5925 15.4962 33.6763 15.5879 33.78 15.652C33.8837 15.7161 34.0031 15.75 34.125 15.75H35.4375L34.2563 17.325L35.3062 18.1125L37.275 15.4875C37.3481 15.39 37.3927 15.2741 37.4036 15.1527C37.4145 15.0313 37.3915 14.9093 37.337 14.8003C37.2825 14.6913 37.1987 14.5996 37.095 14.5355C36.9913 14.4714 36.8719 14.4375 36.75 14.4375H35.4375L36.6187 12.8625L35.5688 12.075ZM20.3438 15.75H22.9688V21H20.3438V15.75Z" fill="white"/>
<path d="M9.64714 18.375L15.4805 28.875H30.3846L24.5506 18.375H24.2815V21.6562C24.2815 21.8303 24.2124 21.9972 24.0893 22.1203C23.9662 22.2434 23.7993 22.3125 23.6253 22.3125H19.6878C19.5137 22.3125 19.3468 22.2434 19.2237 22.1203C19.1007 21.9972 19.0315 21.8303 19.0315 21.6562V18.375H9.64714ZM17.719 34.125H25.594V36.75H17.719V34.125ZM3.08398 28.875H13.979L8.53152 19.07L3.08398 28.875ZM12.469 39.375V30.1875H4.59402V39.375H5.90652V33.4688C5.90652 33.2947 5.97566 33.1278 6.09873 33.0047C6.2218 32.8816 6.38872 32.8125 6.56277 32.8125H10.5003C10.6743 32.8125 10.8412 32.8816 10.9643 33.0047C11.0874 33.1278 11.1565 33.2947 11.1565 33.4688V39.375H12.469Z" fill="white"/>
<path d="M7.21875 34.125H9.84375V39.375H7.21875V34.125ZM13.7812 39.375H29.5312V30.1875H13.7812V39.375ZM16.4062 33.4688C16.4062 33.2947 16.4754 33.1278 16.5985 33.0047C16.7215 32.8816 16.8885 32.8125 17.0625 32.8125H26.25C26.424 32.8125 26.591 32.8816 26.714 33.0047C26.8371 33.1278 26.9062 33.2947 26.9062 33.4688V37.4062C26.9062 37.5803 26.8371 37.7472 26.714 37.8703C26.591 37.9934 26.424 38.0625 26.25 38.0625H17.0625C16.8885 38.0625 16.7215 37.9934 16.5985 37.8703C16.4754 37.7472 16.4062 37.5803 16.4062 37.4062V33.4688Z" fill="white"/>
<path d="M36.75 39.375V29.5312H35.4375V39.375H1.3125V40.6875H40.6875V39.375H36.75ZM14.3259 12.1734L11.7009 16.1109L10.6116 15.3891L12.5541 12.4688H9.84375C9.72811 12.4692 9.61441 12.4391 9.51415 12.3815C9.41389 12.3239 9.33063 12.2408 9.27281 12.1406C9.2179 12.04 9.18913 11.9272 9.18913 11.8125C9.18913 11.6978 9.2179 11.585 9.27281 11.4844L9.83719 10.5H11.3466L10.9725 11.1562H13.7812C13.9002 11.1554 14.0171 11.1874 14.119 11.2488C14.2209 11.3102 14.3039 11.3985 14.3587 11.5041C14.4166 11.6075 14.4442 11.7251 14.4384 11.8435C14.4326 11.9618 14.3936 12.0762 14.3259 12.1734ZM32.0447 13.4859L29.4197 17.4234L28.3303 16.7016L30.2728 13.7812H27.5625C27.4469 13.7817 27.3332 13.7516 27.2329 13.694C27.1326 13.6364 27.0494 13.5533 26.9916 13.4531C26.9367 13.3525 26.9079 13.2397 26.9079 13.125C26.9079 13.0103 26.9367 12.8975 26.9916 12.7969L27.5559 11.8125H29.0653L28.6912 12.4688H31.5C31.619 12.4679 31.7358 12.4999 31.8377 12.5613C31.9396 12.6227 32.0226 12.711 32.0775 12.8166C32.1353 12.92 32.1629 13.0376 32.1571 13.156C32.1513 13.2743 32.1124 13.3887 32.0447 13.4859Z" fill="white"/>
</svg>
